# xmcd
#
# Track frame offsets: 
#        183
#        12743
#        26643
#        38538
#        49910
#        63463
#        76860
#        88595
#        101298
#        114348
#        126120
#        137263
#        148275
#        159753
#        171115
#        183215
#        196730
#        208020
#        223665
#        234848
#        246433
#        261295
#        272285
#        284403
#        296523
#        310575
#        322758
#
# Disc length: 4453 seconds
#
# Revision: 10
# Processed by: cddbd v1.5.2PL0 Copyright (c) Steve Scherf et al.
# Submitted via: ExactAudioCopyFreeDBPlugin 1.0
#
DISCID=7011631b
DTITLE=Various Artist - Atlantic Rhythm and Blues, 1947-1974
DYEAR=1991
DGENRE=Rhythm and Blues
TTITLE0=The Coasters - Little Egypt
TTITLE1=Ben E. King - Amor
TTITLE2=The Mar-Keys - Last Night
TTITLE3=The Ikettes - I'm Blue
TTITLE4=William Bell - You Don't Miss Your Water
TTITLE5=The Falcons - I Found a Love
TTITLE6=Solomon Burke - Cry to Me
TTITLE7=Ben E. King - Don't Play That Song (You Lied)
TTITLE8=Booker T. and The M.G.'s - Green Onions
TTITLE9=The Drifters - Up on the Roof
TTITLE10=LaVern Baker - See See Rider
TTITLE11=Ben E. King - I (Who Have Nothing)
TTITLE12=Solomon Burke - If You Need Me
TTITLE13=Otis Redding - These Arms of Mine
TTITLE14=Barbara Lewis - Hello Stranger
TTITLE15=The Drifters - On Broadway
TTITLE16=Doris Troy - Just One Look
TTITLE17=Nat Kendrick and The Swans - Mashed Potatoes
TTITLE18=Chris Kenner - Land of 1000 Dances
TTITLE19=Rufus Thomas - Walking the Dog
TTITLE20=Esther Phillips - Release Me
TTITLE21=Don Covay - Mercy Mercy
TTITLE22=The Drifters - Under the Boardwalk
TTITLE23=Esther Phillips - And I Love Him
TTITLE24=Joe Tex - Hold What You've Got
TTITLE25=Otis Redding - Mr. Pitiful
TTITLE26=Barbara Lewis - Baby I'm Yours
EXTD=1961-1965\nCD issued 1991, Atlantic, 7 82305-2
EXTT0=The Coasters
EXTT1=Ben E. King
EXTT2=The Mar-Keys
EXTT3=The Ikettes
EXTT4=William Bell
EXTT5=The Falcons
EXTT6=Solomon Burke
EXTT7=Ben E. King
EXTT8=Booker T. and The MG's
EXTT9=The Drifters
EXTT10=LaVern Baker
EXTT11=Ben E. King
EXTT12=Solomon Burke
EXTT13=Otis Redding
EXTT14=Barbara Lewis
EXTT15=The Drifters
EXTT16=Doris Troy
EXTT17=Nat Kendricks and The Swans
EXTT18=Chris Kenner
EXTT19=Rufus Thomas
EXTT20=Esther Phillips
EXTT21=Don Covay
EXTT22=The Drifters
EXTT23=Esther Phillips
EXTT24=Joe Tex
EXTT25=Otis Redding
EXTT26=Barbara Lewis
PLAYORDER=
